<svg xmlns="http://www.w3.org/2000/svg" style="display: none;">

    <symbol id="doc-check" viewBox="0 0 76.328 76.328">
        <g>
            <path style="fill:#76B4D0;" d="M22.464,21.81h19.624v4.579c0,0.362,0.292,0.654,0.654,0.654h4.579v10.139h1.308V26.389
                c0-0.181-0.074-0.345-0.192-0.463l-5.231-5.231c-0.119-0.119-0.283-0.193-0.464-0.193H25.081v-1.308h24.858v19.297h1.308V18.539
                c0-0.362-0.292-0.654-0.654-0.654H24.427c-0.362,0-0.654,0.292-0.654,0.654v1.962H21.81c-0.362,0-0.654,0.292-0.654,0.654v36.632
                c0,0.362,0.292,0.654,0.654,0.654h29.437v-1.308H22.464V21.81z M43.397,22.735l3,3h-3V22.735z M43.397,22.735"/>
            <path style="fill:#76B4D0;" d="M47.976,39.472c-3.967,0-7.196,3.228-7.196,7.196s3.228,7.196,7.196,7.196s7.196-3.228,7.196-7.196
                S51.943,39.472,47.976,39.472L47.976,39.472z M47.976,52.555c-3.246,0-5.887-2.641-5.887-5.887s2.641-5.887,5.887-5.887
                s5.887,2.641,5.887,5.887S51.222,52.555,47.976,52.555L47.976,52.555z M47.976,52.555"/>
            <path style="fill:#76B4D0;" d="M47.664,48.701l-1.188-1.188l-0.925,0.925l1.962,1.962c0.124,0.124,0.291,0.192,0.462,0.192
                c0.053,0,0.107-0.006,0.16-0.019c0.224-0.057,0.4-0.226,0.467-0.447l1.962-6.541l-1.253-0.376L47.664,48.701z M47.664,48.701"/>
            <rect x="23.773" y="28.352" style="fill:#76B4D0;" width="17.008" height="1.308"/>
            <rect x="23.773" y="30.968" style="fill:#76B4D0;" width="17.008" height="1.308"/>
            <rect x="23.773" y="33.585" style="fill:#76B4D0;" width="17.008" height="1.308"/>
            <rect x="23.773" y="36.201" style="fill:#76B4D0;" width="13.083" height="1.308"/>
            <rect x="23.773" y="38.818" style="fill:#76B4D0;" width="13.083" height="1.308"/>
            <rect x="23.773" y="41.435" style="fill:#76B4D0;" width="13.083" height="1.308"/>
            <rect x="23.773" y="49.284" style="fill:#76B4D0;" width="13.083" height="1.308"/>
            <rect x="23.773" y="51.901" style="fill:#76B4D0;" width="13.083" height="1.308"/>
            <rect x="23.773" y="54.518" style="fill:#76B4D0;" width="13.083" height="1.308"/>
            <rect x="24.427" y="23.118" style="fill:#76B4D0;" width="1.308" height="1.308"/>
            <rect x="27.043" y="23.118" style="fill:#76B4D0;" width="1.308" height="1.308"/>
            <rect x="29.66" y="23.118" style="fill:#76B4D0;" width="1.308" height="1.308"/>
            <rect x="32.276" y="23.118" style="fill:#76B4D0;" width="8.504" height="1.308"/>
        </g>
        <g>
            <path style="fill:#CEE5F0;" d="M38.163,76.328C17.12,76.328,0,59.207,0,38.164C0,17.121,17.12,0.001,38.163,0.001
                c21.044,0,38.164,17.12,38.164,38.163C76.327,59.207,59.207,76.328,38.163,76.328z M38.163,1.001C17.671,1.001,1,17.672,1,38.164
                c0,20.492,16.671,37.164,37.164,37.164s37.164-16.672,37.164-37.164C75.327,17.672,58.655,1.001,38.163,1.001z"/>
        </g>
    </symbol>
   
</svg>

