<svg xmlns="http://www.w3.org/2000/svg" style="display: none;">

    <symbol id="doc-check" viewBox="0 0 76.328 76.328">
        <g>
            <path style="fill:#76B4D0;" d="M22.464,21.81h19.624v4.579c0,0.362,0.292,0.654,0.654,0.654h4.579v10.139h1.308V26.389
                c0-0.181-0.074-0.345-0.192-0.463l-5.231-5.231c-0.119-0.119-0.283-0.193-0.464-0.193H25.081v-1.308h24.858v19.297h1.308V18.539
                c0-0.362-0.292-0.654-0.654-0.654H24.427c-0.362,0-0.654,0.292-0.654,0.654v1.962H21.81c-0.362,0-0.654,0.292-0.654,0.654v36.632
                c0,0.362,0.292,0.654,0.654,0.654h29.437v-1.308H22.464V21.81z M43.397,22.735l3,3h-3V22.735z M43.397,22.735"/>
            <path style="fill:#76B4D0;" d="M47.976,39.472c-3.967,0-7.196,3.228-7.196,7.196s3.228,7.196,7.196,7.196s7.196-3.228,7.196-7.196
                S51.943,39.472,47.976,39.472L47.976,39.472z M47.976,52.555c-3.246,0-5.887-2.641-5.887-5.887s2.641-5.887,5.887-5.887
                s5.887,2.641,5.887,5.887S51.222,52.555,47.976,52.555L47.976,52.555z M47.976,52.555"/>
            <path style="fill:#76B4D0;" d="M47.664,48.701l-1.188-1.188l-0.925,0.925l1.962,1.962c0.124,0.124,0.291,0.192,0.462,0.192
                c0.053,0,0.107-0.006,0.16-0.019c0.224-0.057,0.4-0.226,0.467-0.447l1.962-6.541l-1.253-0.376L47.664,48.701z M47.664,48.701"/>
            <rect x="23.773" y="28.352" style="fill:#76B4D0;" width="17.008" height="1.308"/>
            <rect x="23.773" y="30.968" style="fill:#76B4D0;" width="17.008" height="1.308"/>
            <rect x="23.773" y="33.585" style="fill:#76B4D0;" width="17.008" height="1.308"/>
            <rect x="23.773" y="36.201" style="fill:#76B4D0;" width="13.083" height="1.308"/>
            <rect x="23.773" y="38.818" style="fill:#76B4D0;" width="13.083" height="1.308"/>
            <rect x="23.773" y="41.435" style="fill:#76B4D0;" width="13.083" height="1.308"/>
            <rect x="23.773" y="49.284" style="fill:#76B4D0;" width="13.083" height="1.308"/>
            <rect x="23.773" y="51.901" style="fill:#76B4D0;" width="13.083" height="1.308"/>
            <rect x="23.773" y="54.518" style="fill:#76B4D0;" width="13.083" height="1.308"/>
            <rect x="24.427" y="23.118" style="fill:#76B4D0;" width="1.308" height="1.308"/>
            <rect x="27.043" y="23.118" style="fill:#76B4D0;" width="1.308" height="1.308"/>
            <rect x="29.66" y="23.118" style="fill:#76B4D0;" width="1.308" height="1.308"/>
            <rect x="32.276" y="23.118" style="fill:#76B4D0;" width="8.504" height="1.308"/>
        </g>
        <g>
            <path style="fill:#CEE5F0;" d="M38.163,76.328C17.12,76.328,0,59.207,0,38.164C0,17.121,17.12,0.001,38.163,0.001
                c21.044,0,38.164,17.12,38.164,38.163C76.327,59.207,59.207,76.328,38.163,76.328z M38.163,1.001C17.671,1.001,1,17.672,1,38.164
                c0,20.492,16.671,37.164,37.164,37.164s37.164-16.672,37.164-37.164C75.327,17.672,58.655,1.001,38.163,1.001z"/>
        </g>
    </symbol>


    <symbol id="alarm" viewBox="0 0 252.84 252.83">
        <path d="M126.42,252.83A126.42,126.42,0,1,1,252.84,126.41,126.56,126.56,0,0,1,126.42,252.83Zm0-249.52a123.11,123.11,0,1,0,123.1,123.1A123.25,123.25,0,0,0,126.42,3.31Z" style="fill: #cee5f0"/>
        <g>
        <path d="M193,113.08a12.84,12.84,0,0,0-12.82-12.83,12.7,12.7,0,0,0-7,2.09,50.19,50.19,0,1,0-84.53,46.22,50.88,50.88,0,0,0,9.92,7.73H86.82A12.84,12.84,0,0,0,74,169.12v9.34a3.48,3.48,0,0,0,3.49,3.48h93.4a3.48,3.48,0,0,0,3.48-3.48v-9.34a12.72,12.72,0,0,0-2-6.85A68.66,68.66,0,0,0,193,113.08ZM167.2,157.61a12.8,12.8,0,0,0-5.66-1.32h-11.8a50.58,50.58,0,0,0,9.92-7.73,49.72,49.72,0,0,0,13.55-24.74A12.82,12.82,0,0,0,184.93,125a61.38,61.38,0,0,1-17.44,32.28l-.29.33Zm13-50.39a5.86,5.86,0,1,1-5.86,5.86,5.87,5.87,0,0,1,5.86-5.86ZM81,113.08a43.22,43.22,0,1,1,43.22,43.21A43.27,43.27,0,0,1,81,113.08ZM167.39,175H81v-5.85a5.87,5.87,0,0,1,5.86-5.86h74.72a5.87,5.87,0,0,1,5.85,5.86Zm0,0" style="fill: #75b5d1"/>
        <path d="M124.18,100.25A12.83,12.83,0,1,0,137,113.08a12.84,12.84,0,0,0-12.82-12.83Zm0,18.68a5.86,5.86,0,1,1,5.85-5.85,5.87,5.87,0,0,1-5.85,5.85Zm0,0" style="fill: #75b5d1"/>
        </g>
    </symbol>

    <symbol id="bed" viewBox="0 0 252.84 252.83">
        <path d="M126.42,252.83A126.42,126.42,0,1,1,252.84,126.41,126.56,126.56,0,0,1,126.42,252.83Zm0-249.52a123.11,123.11,0,1,0,123.1,123.1A123.25,123.25,0,0,0,126.42,3.31Z" style="fill: #cee5f0"/>
        <path d="M192.43,92.45h-9a2.25,2.25,0,0,0-2.25,2.25v13.71c-2.92-2.57-7.72-4.72-15.73-4.72-14.9,0-18.82,7.4-19.86,11.24h-9.36v-4.5a4.5,4.5,0,0,0-4.5-4.49h-9a4.5,4.5,0,0,0-4.5,4.49H71.05a6.75,6.75,0,0,0-6.74,6.75v11.24H62.06a2.24,2.24,0,0,0-2.25,2.24v31.47a2.25,2.25,0,0,0,2.25,2.25H68.8A2.25,2.25,0,0,0,71,162.5L73,150.89H181.54l1.93,11.61a2.25,2.25,0,0,0,2.22,1.88h6.74a2.25,2.25,0,0,0,2.25-2.25V94.7a2.25,2.25,0,0,0-2.25-2.25Zm-27,15.74c10.53,0,14,4.07,15.17,6.74H150.3c1.15-2.68,4.64-6.74,15.16-6.74Zm15.73,11.23v9H136.24v-9Zm-58.44-9h9v18h-9ZM68.8,117.18a2.25,2.25,0,0,1,2.25-2.25h47.2v13.49H68.8Zm-4.49,15.73H181.19V146.4H64.31Zm2.59,27H64.31v-9H68.4Zm123.29,0h-2.6l-1.9-11.43V97h4.5Zm0,0" style="fill: #75b5d1"/>
    </symbol>

    <symbol id="care" viewBox="0 0 252.84 252.83">
        <path d="M182.55,150.92h-1.18a8.35,8.35,0,0,0,1.18-4.23,8.48,8.48,0,0,0-8.46-8.46h-1.42l-2.82-2.12V123.42H173a7.42,7.42,0,0,0,7.4-7.41V102.26A19.06,19.06,0,0,0,165,83.57a14.81,14.81,0,1,0-20.31-.36H103.2a7.4,7.4,0,0,0-6.7,4.3c-.24,0-.47-.07-.71-.07A14.8,14.8,0,0,0,88,114.8c-.52.28-1,.55-1.54.88a16.76,16.76,0,0,0-7,9.95l-3.82-6.51A8.47,8.47,0,0,0,61,127.7l15.64,26.59a27.62,27.62,0,0,0,23.72,13.56h1.8v8.47H97.91A10.58,10.58,0,0,0,87.33,186.9V189h76.18V186.9a10.59,10.59,0,0,0-10.59-10.58h-4.23v-8.47h33.86a8.47,8.47,0,0,0,0-16.93Zm-65.27-19.44a8.36,8.36,0,0,0,5.44-11.09l7.61-5.44H136v14.39l-13.34,8.89h-.88Zm-9.1-13.23a16.84,16.84,0,0,0-4.51-3.47,14.8,14.8,0,0,0,6.93-12.52A15.11,15.11,0,0,0,110,98h23.91a2.12,2.12,0,0,1,2.12,2.12v10.58h-7L120.24,117a8.32,8.32,0,0,0-12.06,1.29Zm6.66.93a4.24,4.24,0,1,1-4.24,4.24,4.24,4.24,0,0,1,4.24-4.24Zm23.65,13.58a17.79,17.79,0,0,1,9.9-3,18,18,0,0,1,10.71,3.57l6.52,4.9H130.29Zm27.13.18-4-3a21.79,21.79,0,0,0-21.4-2.8V115h4.34a7.2,7.2,0,0,0,7.3,8.47h13.75ZM155,90.4l-2.37-3h4.74Zm-2.83,3.23L149.84,96l-1.94-7.74Zm10-5.37L160.24,96l-2.36-2.37ZM144.46,72.63A10.58,10.58,0,1,1,155,83.21a10.6,10.6,0,0,1-10.58-10.58ZM103.2,87.44h40.14l4.21,16.84,7.49-7.5,7.5,7.5,4-15.91a14.83,14.83,0,0,1,9.69,13.89V116a3.17,3.17,0,0,1-3.17,3.17H151.87a3.17,3.17,0,1,1,0-6.34h18v-12.7h-4.23v8.46H151.87a7.34,7.34,0,0,0-5.29,2.24v-.12h-6.35V100.14a6.36,6.36,0,0,0-6.35-6.35H103.2a3.18,3.18,0,1,1,0-6.35Zm-18,14.82A10.59,10.59,0,0,1,95.79,91.68h.11A7.39,7.39,0,0,0,103.2,98h2.28a10.58,10.58,0,1,1-20.27,4.24ZM83.28,132a12.75,12.75,0,0,1,5.48-12.76,12.7,12.7,0,0,1,17.6,3.52l.07.11c0,.2-.06.39-.06.59a8.44,8.44,0,0,0,5.78,8l7.37,11.06h54.57a4.23,4.23,0,0,1,0,8.46H116.21a7.31,7.31,0,0,0,.74-3.17,7.42,7.42,0,0,0-7.4-7.41H103a3.19,3.19,0,0,1-2.72-1.54l-4.81-8L91.86,133l4.81,8a7.44,7.44,0,0,0,6.35,3.6h6.53a3.17,3.17,0,1,1,0,6.34h-9.21a10.6,10.6,0,0,1-9.12-5.21l-7.86-13.36Zm75.63,52.82h-67a6.37,6.37,0,0,1,6-4.23h55a6.36,6.36,0,0,1,6,4.23Zm-14.45-8.46H106.37v-8.47h38.09Zm38.09-12.7H100.34a23.38,23.38,0,0,1-20.07-11.47L64.63,125.56a4.23,4.23,0,1,1,7.3-4.29l15.64,26.58a14.83,14.83,0,0,0,12.56,7.29v0h82.42a4.23,4.23,0,1,1,0,8.46Zm0,0" style="fill: #75b5d1"/>
        <path d="M126.42,252.83A126.42,126.42,0,1,1,252.84,126.41,126.56,126.56,0,0,1,126.42,252.83Zm0-249.52a123.11,123.11,0,1,0,123.1,123.1A123.25,123.25,0,0,0,126.42,3.31Z" style="fill: #cee5f0"/>
    </symbol>

    <symbol id="chair" viewBox="0 0 252.84 252.83">
        <g>
        <path d="M142.8,123.2v-4.81a34.84,34.84,0,0,0-69.68,0v4.81a12.3,12.3,0,0,0,0,23.18v27.34a2.05,2.05,0,0,0,2,2.05h2.5l1.66,6.65a2.05,2.05,0,0,0,2,1.55h6.15a2.05,2.05,0,0,0,2-1.55l1.66-6.65h33.69l1.66,6.65a2.05,2.05,0,0,0,2,1.55h6.15a2,2,0,0,0,2-1.55l1.66-6.65h2.51a2.05,2.05,0,0,0,2.05-2.05V146.38a12.3,12.3,0,0,0,0-23.18Zm-65.58-4.81a30.75,30.75,0,0,1,61.49,0v4.1a12.15,12.15,0,0,0-4.1.71v-4.81a26.65,26.65,0,1,0-53.29,0v4.81a12.15,12.15,0,0,0-4.1-.71Zm12.3,28.69v-12.3a12.28,12.28,0,0,0-4.1-9.14v-7.25a22.55,22.55,0,1,1,45.09,0v7.25a12.25,12.25,0,0,0-4.1,9.14v12.3Zm36.89,4.1v8.2H89.52v-8.2ZM85.87,179.87h-3l-1-4.1h5Zm47.14,0h-2.95l-1-4.1h5Zm7.33-37.05a2,2,0,0,0-1.63,2v26.85H77.22V144.82a2,2,0,0,0-1.64-2,8.2,8.2,0,1,1,9.84-8v26.65a2.05,2.05,0,0,0,2,2h41a2.05,2.05,0,0,0,2-2V134.78a8.2,8.2,0,1,1,9.83,8Z" style="fill: #75b5d1"/>
        <path d="M109.42,106.68a2.16,2.16,0,0,0-2.91,0,2.12,2.12,0,0,0-.43.68,1.93,1.93,0,0,0,0,1.56,2.14,2.14,0,0,0,.43.67,2.06,2.06,0,0,0,2.91,0,2.48,2.48,0,0,0,.43-.67,1.93,1.93,0,0,0,0-1.56A2.3,2.3,0,0,0,109.42,106.68Z" style="fill: #75b5d1"/>
        <path d="M103.27,114.88a2.14,2.14,0,0,0-2.91,0,2.12,2.12,0,0,0-.43.68,1.93,1.93,0,0,0,0,1.56,2.39,2.39,0,0,0,.43.67,2.3,2.3,0,0,0,.68.43,2,2,0,0,0,2.23-.43,2.39,2.39,0,0,0,.43-.67,1.93,1.93,0,0,0,0-1.56A2.12,2.12,0,0,0,103.27,114.88Z" style="fill: #75b5d1"/>
        <path d="M112.66,117.79a2,2,0,0,0,3.34-2.23,2.3,2.3,0,0,0-.43-.68,2,2,0,0,0-2.24-.45,2.07,2.07,0,0,0-1.27,1.91,2.33,2.33,0,0,0,.14.78A3.46,3.46,0,0,0,112.66,117.79Z" style="fill: #75b5d1"/>
        <path d="M109.42,123.08a2.14,2.14,0,0,0-2.91,0,2.3,2.3,0,0,0-.43.68,1.9,1.9,0,0,0,0,1.55,2.3,2.3,0,0,0,.43.68,2.39,2.39,0,0,0,.67.43,2,2,0,0,0,2.24-.43,2.53,2.53,0,0,0,.43-.68,1.9,1.9,0,0,0,0-1.55A2.3,2.3,0,0,0,109.42,123.08Z" style="fill: #75b5d1"/>
        <path d="M97.12,123.08a2.39,2.39,0,0,0-.67-.43,2.06,2.06,0,0,0-2.24.43,2.3,2.3,0,0,0-.43.68,1.9,1.9,0,0,0,0,1.55,2.53,2.53,0,0,0,.43.68,2.3,2.3,0,0,0,.68.43,1.93,1.93,0,0,0,1.56,0,1.83,1.83,0,0,0,1.1-1.11,1.9,1.9,0,0,0,0-1.55A2.3,2.3,0,0,0,97.12,123.08Z" style="fill: #75b5d1"/>
        <path d="M121.72,123.08a2.14,2.14,0,0,0-2.91,0,2.34,2.34,0,0,0-.44.68,2,2,0,0,0,0,1.55,2.34,2.34,0,0,0,.44.68,2.14,2.14,0,0,0,.67.43,1.93,1.93,0,0,0,1.56,0,1.87,1.87,0,0,0,1.11-1.11,2,2,0,0,0,0-1.55A2.53,2.53,0,0,0,121.72,123.08Z" style="fill: #75b5d1"/>
        <path d="M103.27,131.28a1.59,1.59,0,0,0-.33-.25,1.06,1.06,0,0,0-.35-.18,1.28,1.28,0,0,0-.39-.13,1.76,1.76,0,0,0-.79,0,1.47,1.47,0,0,0-.37.13,1.27,1.27,0,0,0-.37.18l-.31.25a2.14,2.14,0,0,0-.43.67,2,2,0,0,0,.43,2.24,2.53,2.53,0,0,0,.68.43,1.73,1.73,0,0,0,.78.16,2.08,2.08,0,0,0,1.45-.59,2,2,0,0,0,.43-2.24A2,2,0,0,0,103.27,131.28Z" style="fill: #75b5d1"/>
        <path d="M113.33,130.85a1.82,1.82,0,0,0-1.1,1.1,1.77,1.77,0,0,0-.17.78,2,2,0,0,0,.6,1.46,2,2,0,0,0,1.45.59,1.73,1.73,0,0,0,.78-.16,1.85,1.85,0,0,0,1.11-1.11,1.73,1.73,0,0,0,.16-.78,2.17,2.17,0,0,0-.59-1.45A2.06,2.06,0,0,0,113.33,130.85Z" style="fill: #75b5d1"/>
        <path d="M109.42,139.48a1.59,1.59,0,0,0-.33-.25,2.63,2.63,0,0,0-.74-.31,1.8,1.8,0,0,0-.8,0,1.36,1.36,0,0,0-.37.13,1.41,1.41,0,0,0-.37.18l-.3.25a2.26,2.26,0,0,0-.43.67,1.63,1.63,0,0,0-.16.78,2,2,0,1,0,3.93-.78A2.26,2.26,0,0,0,109.42,139.48Z" style="fill: #75b5d1"/>
        <path d="M97.12,139.48a2.14,2.14,0,0,0-2.91,0,2.48,2.48,0,0,0-.43.67,2.07,2.07,0,0,0,.43,2.24,2.53,2.53,0,0,0,.68.43,2,2,0,0,0,2.66-2.67A2.26,2.26,0,0,0,97.12,139.48Z" style="fill: #75b5d1"/>
        <path d="M121.72,139.48a2.07,2.07,0,0,0-2.24-.43,1.83,1.83,0,0,0-.67.43,2.29,2.29,0,0,0-.44.67,1.76,1.76,0,0,0-.16.78,2,2,0,0,0,.9,1.71,2,2,0,0,0,1.93.18,2.53,2.53,0,0,0,.68-.43,2.07,2.07,0,0,0,.43-2.24A2.48,2.48,0,0,0,121.72,139.48Z" style="fill: #75b5d1"/>
        <path d="M97.12,106.68a2.16,2.16,0,0,0-2.91,0,2.3,2.3,0,0,0-.43.68,1.93,1.93,0,0,0,0,1.56,2.33,2.33,0,0,0,.43.67,2.06,2.06,0,0,0,2.91,0,2.26,2.26,0,0,0,.43-.67,1.93,1.93,0,0,0,0-1.56A2.12,2.12,0,0,0,97.12,106.68Z" style="fill: #75b5d1"/>
        <path d="M121,106.25a2,2,0,0,0-2.67,1.11,2.09,2.09,0,0,0-.16.78,1.73,1.73,0,0,0,.16.78,2.16,2.16,0,0,0,.44.67,2.06,2.06,0,0,0,2.91,0,2.33,2.33,0,0,0,.43-.67,2.09,2.09,0,0,0,.16-.78A2,2,0,0,0,121,106.25Z" style="fill: #75b5d1"/>
        <path d="M187.88,95.59l-4.1-32.79a2.05,2.05,0,0,0-2-1.8H149a2.05,2.05,0,0,0-2,1.8l-4.1,32.79a2,2,0,0,0,2,2.3H163.3v73.78h-6.15a6.15,6.15,0,0,0-6.15,6.15v4.1a2.05,2.05,0,0,0,2.05,2.05h24.6a2.05,2.05,0,0,0,2-2.05v-4.1a6.16,6.16,0,0,0-6.15-6.15H167.4V97.89h18.44a2,2,0,0,0,2-2.3Zm-14.33,80.18a2.05,2.05,0,0,1,2,2v2.05H155.1v-2.05a2.05,2.05,0,0,1,2.05-2Zm-26.37-82,3.58-28.69h29.17l3.59,28.69Z" style="fill: #75b5d1"/>
        </g>
        <path d="M126.42,252.83A126.42,126.42,0,1,1,252.84,126.41,126.56,126.56,0,0,1,126.42,252.83Zm0-249.52a123.11,123.11,0,1,0,123.1,123.1A123.25,123.25,0,0,0,126.42,3.31Z" style="fill: #cee5f0"/>
    </symbol>

    <symbol id="cutlery" viewBox="0 0 252.84 252.83">
        <path d="M126.42,252.83A126.42,126.42,0,1,1,252.84,126.41,126.56,126.56,0,0,1,126.42,252.83Zm0-249.52a123.11,123.11,0,1,0,123.1,123.1A123.25,123.25,0,0,0,126.42,3.31Z" style="fill: #cee5f0"/>
        <g>
        <path d="M84.62,72.39c-4.74,0-9.15,2.39-12.42,6.75a27,27,0,0,0,0,30.78,17.4,17.4,0,0,0,6.37,5.37l-3.64,54.8a9.71,9.71,0,1,0,19.37,0l-3.64-54.8A17.4,17.4,0,0,0,97,109.92a27,27,0,0,0,0-30.78C93.76,74.78,89.35,72.39,84.62,72.39ZM88.08,174a4.75,4.75,0,0,1-6.93,0,4.76,4.76,0,0,1-1.28-3.57l3.58-53.8c.39,0,.77,0,1.17,0s.77,0,1.16,0l3.58,53.8A4.75,4.75,0,0,1,88.08,174Zm-3.46-62.27a9,9,0,0,1-2.59-.39l-.21-.07c-5.43-1.78-9.48-8.6-9.48-16.73,0-9.48,5.51-17.19,12.28-17.19s12.27,7.71,12.27,17.19S91.38,111.72,84.62,111.72Z" style="fill: #75b5d1"/>
        <path d="M175.1,137V75.18h0a2.43,2.43,0,0,0-.35-1.62,2.48,2.48,0,0,0-3.41-.8,33.85,33.85,0,0,0-16.15,29h0v32.46a5.26,5.26,0,0,0,5.1,5.25V173a7.42,7.42,0,0,0,14.83,0V137Zm-14.67-2.46a.31.31,0,0,1-.3-.31V101.73h0a28.88,28.88,0,0,1,10-22v54.74ZM170.15,173a2.46,2.46,0,0,1-4.92,0V139.44h4.92Z" style="fill: #75b5d1"/>
        <path d="M137.46,72.39A2.48,2.48,0,0,0,135,74.86V103h-6.32V74.86a2.48,2.48,0,0,0-5,0V103h-6.32V74.86a2.48,2.48,0,0,0-5,0v35.88a7.34,7.34,0,0,0,7.33,7.33h.44l-3.48,52.27a9.48,9.48,0,1,0,18.92,0l-3.47-52.27h.44a7.33,7.33,0,0,0,7.32-7.33V74.86A2.48,2.48,0,0,0,137.46,72.39Zm-8,101.67a4.52,4.52,0,0,1-7.82-3.39l3.5-52.6h2l3.5,52.6A4.52,4.52,0,0,1,129.49,174.06ZM135,110.74a2.38,2.38,0,0,1-2.37,2.37H119.76a2.37,2.37,0,0,1-2.37-2.37V108H135Z" style="fill: #75b5d1"/>
        </g>
    </symbol>

    <symbol id="geo" viewBox="0 0 252.84 252.83">
        <g>
        <path d="M142.54,151.25c11.52-19.11,26.08-46,26.08-59.78a42.23,42.23,0,0,0-84.46,0c0,13.81,14.56,40.67,26.08,59.78-13.67,1-44.77,4.74-44.77,17,0,12.1,31.58,17.63,61,17.63s60.94-5.53,60.94-17.63c0-12.3-31.15-16-44.82-17ZM90,91.47a36.42,36.42,0,1,1,72.83,0c0,17.55-27.95,61.56-36.43,74.5C117.91,153,90,109,90,91.47Zm36.4,88.62c-35.67,0-55.11-7.81-55.11-11.83,0-3.1,12.83-9.76,42.39-11.46,5.55,8.95,9.76,15.28,10.32,16a3,3,0,0,0,4.83,0c.58-.7,4.77-7.09,10.32-16,29.56,1.7,42.39,8.34,42.39,11.46,0,4-19.46,11.83-55.14,11.83Zm0,0" style="fill: #75b5d1"/>
        <path d="M144.77,91.47a18.38,18.38,0,1,0-18.38,18.39,18.38,18.38,0,0,0,18.38-18.39Zm-31,0a12.58,12.58,0,1,1,12.58,12.58,12.58,12.58,0,0,1-12.58-12.58Zm0,0" style="fill: #75b5d1"/>
        </g>
        <path d="M126.42,252.83A126.42,126.42,0,1,1,252.84,126.41,126.56,126.56,0,0,1,126.42,252.83Zm0-249.52a123.11,123.11,0,1,0,123.1,123.1A123.25,123.25,0,0,0,126.42,3.31Z" style="fill: #cee5f0"/>
    </symbol>

    <symbol id="help" viewBox="0 0 252.84 252.83">
        <path d="M126.42,252.83A126.42,126.42,0,1,1,252.84,126.41,126.56,126.56,0,0,1,126.42,252.83Zm0-249.52a123.11,123.11,0,1,0,123.1,123.1A123.25,123.25,0,0,0,126.42,3.31Z" style="fill: #cee5f0"/>
        <g>
        <path d="M66.24,147.28a1.72,1.72,0,0,0,1.53,1c.39,0,.77,0,1-.2l46.05-28.58h21.67l-5.75,16.69a1.85,1.85,0,0,0,.38,1.92,2.41,2.41,0,0,0,1.54.77h.19l7.48-1.16a1.92,1.92,0,0,0,1.34-.76L153,119.65h4.61l-1.73,5.76h-5.56a1.92,1.92,0,1,0,0,3.83h4.22l-.38,1.73h-5.76a1.92,1.92,0,1,0,0,3.84H153l-.57,1.92h-5.95a1.92,1.92,0,1,0,0,3.83h4.8l-.58,1.92H114.2a2,2,0,0,0-1.34.58L73.72,177.78a2.05,2.05,0,0,0-.19,2.69,1.86,1.86,0,0,0,2.68,0l18-16.12a49.31,49.31,0,0,0,33,12.66,50,50,0,0,0,49.88-49.88A48.65,48.65,0,0,0,170.22,102l17.46-11.7A1.94,1.94,0,0,0,185.57,87l-28.78,19.18-.57.58-17.65,26.86-3.46.57,9-25.71a1.94,1.94,0,0,0-3.65-1.34l-2.68,8.44H121.49v-4l26.09-19.37a1.92,1.92,0,1,0-2.3-3.07L118.42,109.1a1.75,1.75,0,0,0-.77,1.53v5H114.2a8.48,8.48,0,0,0-1,.19L66.81,144.59A1.92,1.92,0,0,0,66.24,147.28Zm55.25-1h24.94v3.83H121.49Zm37.79-37,7.87-5.18a46,46,0,0,1-69.83,57.94L115,146.32h2.68v5.75a1.82,1.82,0,0,0,1.92,1.92h28.78a1.82,1.82,0,0,0,1.92-1.92v-5.75h1.92a2.33,2.33,0,0,0,1.92-1.35l7.67-26.85a2,2,0,0,0-.38-1.73,1.75,1.75,0,0,0-1.54-.77h-4.6Z" style="fill: #75b5d1"/>
        <path d="M156.22,84.16a1.74,1.74,0,0,0,1.53.77,2.76,2.76,0,0,0,1.15-.39l21.3-15.35a1.92,1.92,0,0,0-2.31-3.07L156.6,81.47A2,2,0,0,0,156.22,84.16Z" style="fill: #75b5d1"/>
        <path d="M101.15,88.76a1.46,1.46,0,0,0,1-.38,47.25,47.25,0,0,1,25.14-7.29,46.21,46.21,0,0,1,24,6.71,1.94,1.94,0,0,0,2.11-3.26,50.14,50.14,0,0,0-26.09-7.29,48.56,48.56,0,0,0-27,8.06A1.89,1.89,0,0,0,99.62,88,2.37,2.37,0,0,0,101.15,88.76Z" style="fill: #75b5d1"/>
        <path d="M94.06,92.41a1.86,1.86,0,0,0-2.69,0,49.85,49.85,0,0,0-14,34.72c0,1.92.19,4,.38,6a2,2,0,0,0,1.92,1.73h.19a2.26,2.26,0,0,0,1.73-2.11,52.13,52.13,0,0,1-.39-5.57,46.47,46.47,0,0,1,12.86-32A1.86,1.86,0,0,0,94.06,92.41Z" style="fill: #75b5d1"/>
        </g>
    </symbol>

    <symbol id="info" viewBox="0 0 78.33 78.33">
        <g>
        <circle cx="39.16" cy="39.16" r="37.66" style="fill: none;stroke: #ff504c;stroke-miterlimit: 10;stroke-width: 3px"/>
        <line x1="39.16" y1="62.58" x2="39.16" y2="32.34" style="fill: none;stroke: #ff504c;stroke-linecap: round;stroke-miterlimit: 10;stroke-width: 5px"/>
        <line x1="39.16" y1="20.51" x2="39.16" y2="17.94" style="fill: none;stroke: #ff504c;stroke-linecap: round;stroke-miterlimit: 10;stroke-width: 5px"/>
        </g>
    </symbol>

    <symbol id="invalid-chair" viewBox="0 0 76.33 76.33">
        <circle cx="38.16" cy="38.16" r="37.66" style="fill: none;stroke: #cee5f0;stroke-miterlimit: 10"/>
        <g>
        <path d="M50.74,52.4a3,3,0,0,0-1.83-1.83l-.17-.06V31.67a3,3,0,0,0-3-3H31.42V19.93H23.25V21.6h6.5V37.44l-.22,0A9.5,9.5,0,1,0,40,45.84l0-.27h7.09v4.94l-.17.06a3,3,0,1,0,3.83,3.83l.06-.17h4.44V52.56H50.8ZM31.42,30.33H45.74a1.34,1.34,0,0,1,1.34,1.34V33H31.42Zm0,4.34H47.08v4.9H36.61l-.07-.06a9.43,9.43,0,0,0-4.9-2l-.22,0Zm-.84,20.06a7.83,7.83,0,1,1,7.83-7.83A7.84,7.84,0,0,1,30.58,54.73Zm9-10.83-.06-.17a9.93,9.93,0,0,0-1.06-2.11l-.27-.39h8.87V43.9Zm8.31,10.83a1.34,1.34,0,1,1,1.33-1.33A1.34,1.34,0,0,1,47.91,54.73Z" style="fill: #75b5d1"/>
        <path d="M30.58,41.73a5.17,5.17,0,1,0,5.17,5.17A5.17,5.17,0,0,0,30.58,41.73Zm0,8.67a3.5,3.5,0,1,1,3.5-3.5A3.5,3.5,0,0,1,30.58,50.4Z" style="fill: #75b5d1"/>
        <rect x="29.75" y="46.07" width="1.67" height="1.67" style="fill: #75b5d1"/>
        </g>
    </symbol>

    <symbol id="mic" viewBox="0 0 252.84 252.83">
        <path d="M126.42,252.83A126.42,126.42,0,1,1,252.84,126.41,126.56,126.56,0,0,1,126.42,252.83Zm0-249.52a123.11,123.11,0,1,0,123.1,123.1A123.25,123.25,0,0,0,126.42,3.31Z" style="fill: #cee5f0"/>
        <g>
        <path d="M123.13,156.52a2.5,2.5,0,1,0-4.85,1.24l2.23,8.73a2.5,2.5,0,0,0,2.42,1.88,2.72,2.72,0,0,0,.63-.08,2.5,2.5,0,0,0,1.8-3Z" style="fill: #75b5d1"/>
        <path d="M119.14,149.68a2.51,2.51,0,1,0-3.08-1A2.52,2.52,0,0,0,119.14,149.68Z" style="fill: #75b5d1"/>
        <path d="M181.43,126.68l-3.13-9.06a18.37,18.37,0,0,0-35,11.08L154.6,168a16,16,0,0,1-22.5,18.74,15.77,15.77,0,0,1-7.35-7.56,12,12,0,0,0,8.46-14.55l-8.59-33.38v0L120.21,114a28.67,28.67,0,0,0,7.5-27.35h0a0,0,0,0,1,0,0,28.57,28.57,0,0,0-56,11v0a28.59,28.59,0,0,0,20.4,23.58l13,50.58a12,12,0,0,0,11.61,9,12.22,12.22,0,0,0,3-.37l.11,0a20.93,20.93,0,0,0,26.46,11.75,21,21,0,0,0,13.12-25.59l-11.32-39.26a13.37,13.37,0,0,1,25.48-8.07l3.12,9.06a2.51,2.51,0,0,0,4.74-1.63ZM94.17,71a23.52,23.52,0,0,1,28.16,15.2,70.17,70.17,0,0,1-32.25,9.73,62.92,62.92,0,0,1-13.56-.73A23.59,23.59,0,0,1,94.17,71ZM77.42,100.39a66.27,66.27,0,0,0,9.24.62c1.1,0,2.26,0,3.46-.09a75.05,75.05,0,0,0,33.35-9.62,23.62,23.62,0,0,1-7.69,20,25.35,25.35,0,0,1-4.24,3,24.19,24.19,0,0,1-5,2.07,21.12,21.12,0,0,1-3,.66A23.6,23.6,0,0,1,77.42,100.39Zm20.14,21.87c.82.07,1.65.11,2.48.11a28.89,28.89,0,0,0,12.78-3,28.45,28.45,0,0,0,3.12-1.81l3.36,13a35.9,35.9,0,0,1-8.93,3.37,41.7,41.7,0,0,1-9.47,1.3Zm25.78,52.09-4.86,1.25a7,7,0,0,1-8.5-5l-7.8-30.34a46.43,46.43,0,0,0,9.43-1.42,42.5,42.5,0,0,0,9-3.23l7.78,30.26h0A7,7,0,0,1,123.34,174.35Z" style="fill: #75b5d1"/>
        <path d="M184.81,136.55a2.5,2.5,0,1,0-1.5,2.8A2.53,2.53,0,0,0,184.81,136.55Z" style="fill: #75b5d1"/>
        </g>
    </symbol>

    <symbol id="time-24" viewBox="0 0 76.33 76.33">
        <circle cx="38.16" cy="38.16" r="37.66" style="fill: none;stroke: #cee5f0;stroke-miterlimit: 10"/>
        <g>
        <path d="M57.26,54h-2V41.46a.65.65,0,0,0-.65-.66.64.64,0,0,0-.54.28L44.87,54.25a.66.66,0,0,0,.16.92.7.7,0,0,0,.38.11H54v2a.66.66,0,1,0,1.31,0v-2h2a.66.66,0,1,0,0-1.31ZM54,43.54V54h-7.3Z" style="fill: #75b5d1"/>
        <path d="M45.41,56.6h-7.8l7.25-8.53,0-.06a4.59,4.59,0,0,0-1-6.22,5.26,5.26,0,0,0-8.34,4.28.66.66,0,0,0,1.32,0,4,4,0,0,1,3.95-4,3.9,3.9,0,0,1,2.3.75,3.25,3.25,0,0,1,.73,4.38l-8.14,9.59a.66.66,0,0,0,.07.93.67.67,0,0,0,.43.16h9.22a.66.66,0,0,0,0-1.32Z" style="fill: #75b5d1"/>
        <path d="M36.2,53.32a.65.65,0,0,0-.63-.68h0A16.44,16.44,0,0,1,19.75,36.85h2.61a.66.66,0,0,0,0-1.32H19.75A16.42,16.42,0,0,1,35.53,19.75V21.7a.66.66,0,1,0,1.32,0V19.75A16.44,16.44,0,0,1,52.62,35.22l-2.57-2.56a.66.66,0,0,0-.93.93l3.68,3.67a.53.53,0,0,0,.25.19l.08,0a.35.35,0,0,0,.14,0h0l.15,0,.08,0a.61.61,0,0,0,.24-.15l3.72-3.72a.66.66,0,0,0-.93-.93l-2.63,2.63a17.75,17.75,0,0,0-17.7-16.87h-.1A17.74,17.74,0,0,0,18.42,36.14s0,0,0,0a.43.43,0,0,1,0,.05A17.76,17.76,0,0,0,35.52,54h0A.65.65,0,0,0,36.2,53.32Z" style="fill: #75b5d1"/>
        <path d="M45,27.34a.66.66,0,0,0-.94,0L37,34.42a2,2,0,0,0-1.68,0L32,31.07a.66.66,0,0,0-.93.93l3.34,3.34a2,2,0,0,0,3.17,2.25h0A2,2,0,0,0,38,35.34L45,28.27A.67.67,0,0,0,45,27.34Zm-8.39,9.31h0a.66.66,0,1,1,0-.93.65.65,0,0,1,0,.93Z" style="fill: #75b5d1"/>
        </g>
    </symbol>

    <symbol id="icon-vk" viewBox="0 0 17 10">
        <path d="M9.9,2.5c0,0.4,0,0.8,0,1.2c0,0.2,0,0.5,0.1,0.7c0,0.1,0.1,0.2,0.2,0.3c0.1,0.1,0.2,0.1,0.3,0c0.1,0,0.2-0.1,0.3-0.2
        c0.1-0.1,0.2-0.2,0.3-0.4c0.3-0.3,0.5-0.7,0.7-1.1c0.5-0.8,0.8-1.5,1.1-2.4c0-0.1,0.1-0.2,0.1-0.2c0.1-0.1,0.2-0.2,0.4-0.2
        c0,0,0.1,0,0.1,0c0.7,0,1.4,0,2.2,0c0.2,0,0.3,0,0.5,0c0.2,0,0.4,0,0.5,0.1C17,0.6,17,0.7,17,1c0,0.2-0.1,0.3-0.1,0.5
        c-0.2,0.3-0.3,0.7-0.5,1c-0.3,0.5-0.6,0.9-1,1.4c-0.3,0.3-0.5,0.7-0.8,1c-0.1,0.2-0.2,0.3-0.3,0.5c-0.1,0.2-0.1,0.4,0,0.6
        c0.1,0.1,0.2,0.2,0.3,0.3c0.1,0.1,0.2,0.2,0.4,0.4c0.4,0.4,0.8,0.8,1.2,1.2c0.2,0.3,0.5,0.6,0.6,0.9c0.1,0.2,0.2,0.3,0.2,0.5
        c0,0.2,0,0.3-0.1,0.4c-0.1,0.1-0.3,0.2-0.5,0.2c-0.1,0-0.2,0-0.3,0c-0.5,0-1,0-1.5,0c-0.2,0-0.4,0-0.6,0c-0.4,0-0.7-0.1-1-0.3
        c-0.2-0.1-0.4-0.3-0.6-0.5c-0.2-0.3-0.5-0.5-0.7-0.8c-0.1-0.1-0.2-0.3-0.3-0.4c-0.1-0.1-0.2-0.2-0.4-0.3c-0.1-0.1-0.2-0.1-0.4-0.1
        c-0.1,0-0.2,0.1-0.2,0.1c-0.1,0.1-0.2,0.2-0.2,0.3C10.1,8.3,10,8.5,10,8.7c0,0.2,0,0.4,0,0.6c0,0.1,0,0.2-0.1,0.3
        c0,0.1-0.1,0.2-0.2,0.3C9.5,9.9,9.4,9.9,9.3,9.9c-0.4,0-0.7,0-1.1,0c-0.5,0-0.9-0.1-1.3-0.2C5.9,9.4,5.1,9,4.4,8.3
        C4,7.9,3.6,7.5,3.3,7c-0.5-0.7-1-1.4-1.4-2.2C1.2,3.6,0.6,2.4,0.1,1.2C0,1,0,0.9,0,0.8c0-0.1,0.1-0.2,0.2-0.3
        c0.1-0.1,0.2-0.1,0.3-0.1c0.2,0,0.5,0,0.7,0c0.2,0,0.3,0,0.5,0c0.3,0,0.7,0,1,0c0.1,0,0.2,0,0.3,0c0.3,0,0.5,0.2,0.6,0.5
        c0.1,0.2,0.1,0.4,0.2,0.6C4.2,2.3,4.7,3.2,5.2,4c0.2,0.3,0.4,0.5,0.6,0.7C5.9,4.8,6,4.8,6.1,4.9c0.2,0,0.3,0,0.4-0.1
        c0.1-0.1,0.1-0.2,0.1-0.3c0-0.2,0.1-0.4,0.1-0.6c0-0.3,0-0.7,0-1c0-0.3,0-0.5,0-0.8c0-0.2,0-0.4-0.1-0.6C6.5,1.1,6.3,0.9,6,0.8
        c-0.1,0-0.2-0.1-0.3-0.1c-0.1,0-0.1-0.1-0.1-0.2c0.1-0.2,0.3-0.3,0.5-0.4c0.2-0.1,0.3-0.1,0.5-0.1c0.3,0,0.5,0,0.8,0
        c0.4,0,0.7,0,1.1,0c0.3,0,0.6,0,0.8,0.1c0.1,0,0.1,0,0.2,0c0.2,0.1,0.4,0.3,0.4,0.5c0,0.2,0.1,0.5,0,0.7C10,1.7,9.9,2.1,9.9,2.5z"></path>
    </symbol>


    <symbol id="icon-fb" viewBox="0 0 8.2 16">
        <g>
        <path d="M2.4,8.7c-0.8,0-1.6,0-2.4,0c0-0.9,0-1.9,0-2.8c0,0,0.1,0,0.1,0c0.7,0,1.4,0,2.2,0c0,0,0.1,0,0.1,0c0,0,0-0.1,0-0.1
        c0-0.7,0-1.4,0-2.1c0-0.5,0.1-1.1,0.3-1.6c0.4-1,1.1-1.6,2.1-1.9C5.2,0,5.6,0,5.9,0c0.4,0,0.8,0,1.2,0c0.3,0,0.6,0.1,0.9,0.1
        c0,0,0,0,0.1,0c0,0.1,0,2.4,0,2.5c0,0-0.1,0-0.1,0c-0.5,0-0.9,0-1.4,0c-0.2,0-0.5,0-0.7,0.1C5.7,2.8,5.5,3,5.4,3.2
        C5.4,3.4,5.3,3.6,5.3,3.8c0,0.1,0,0.3,0,0.4c0,0.5,0,1,0,1.6c0,0,0,0.1,0,0.1c0,0,0.1,0,0.1,0c0.8,0,1.7,0,2.5,0c0,0,0.1,0,0.1,0
        c0,0,0,0.1,0,0.1C8,6.3,8,6.7,7.9,7.1C7.9,7.5,7.8,7.9,7.8,8.3c0,0.1,0,0.3-0.1,0.4c-0.8,0-1.6,0-2.4,0c0,0,0,0.1,0,0.1
        c0,0.3,0,0.7,0,1c0,2,0,4,0,6c0,0,0,0.1,0,0.1c-0.1,0-2.8,0-2.9,0C2.4,13.6,2.4,11.1,2.4,8.7z"></path>
        </g>
    </symbol>

    <symbol id="icon-tw" viewBox="0 0 16 13.3">
        <g>
        <path d="M0,11.8c0.1,0,0.1,0,0.2,0c1.2,0.1,2.4-0.1,3.4-0.6C4,11,4.4,10.7,4.8,10.5c0,0,0,0,0,0c0,0,0,0,0,0c0,0-0.1,0-0.1,0
        c-0.2,0-0.5,0-0.7-0.1c-1.1-0.3-1.8-1-2.2-2.1c0,0,0,0,0,0c0,0,0,0,0,0c0.2,0,0.5,0,0.7,0c0.2,0,0.5,0,0.7-0.1
        c-1-0.2-1.8-0.9-2.3-1.8c-0.2-0.5-0.3-1-0.3-1.5C1,4.9,1.5,5.1,2,5.1C2,5.1,2,5,2,5C1.7,4.8,1.5,4.6,1.3,4.4
        c-0.4-0.5-0.6-1-0.7-1.6C0.5,2,0.7,1.3,1,0.7c0,0,0,0,0-0.1C1.6,1.3,2.2,1.9,3,2.4c0.7,0.5,1.5,0.9,2.3,1.2C6.1,3.9,7,4.1,7.9,4.1
        c0-0.1,0-0.1,0-0.2c-0.1-0.8,0-1.5,0.4-2.2c0.4-0.8,1.1-1.3,1.9-1.6C10.5,0,10.9,0,11.3,0c0.5,0,0.9,0.1,1.3,0.4
        c0.3,0.2,0.6,0.4,0.8,0.6c0,0.1,0.1,0.1,0.2,0c0.6-0.1,1.3-0.4,1.8-0.7c0,0,0.1,0,0.1-0.1c0,0,0,0,0,0c-0.1,0.2-0.1,0.4-0.2,0.5
        C15.3,1,15.2,1.2,15,1.3c-0.1,0.1-0.3,0.3-0.4,0.4c-0.1,0.1-0.3,0.2-0.5,0.4c0.3,0,0.6-0.1,0.9-0.2c0.3-0.1,0.6-0.2,0.9-0.3
        c0,0,0,0.1-0.1,0.1c-0.4,0.6-0.9,1.1-1.5,1.5c-0.1,0.1-0.1,0.1-0.1,0.2c0,0.4,0,0.9,0,1.3c-0.1,1.2-0.4,2.3-1,3.3
        c-0.6,1.3-1.5,2.4-2.6,3.3c-0.6,0.5-1.4,0.9-2.1,1.3c-0.7,0.3-1.4,0.5-2.2,0.6c-0.7,0.1-1.3,0.1-2,0.1c-1.1,0-2.1-0.3-3.1-0.7
        C1,12.4,0.5,12.2,0,11.8C0.1,11.9,0,11.9,0,11.8C0,11.8,0,11.8,0,11.8z"></path>
        </g>
    </symbol>


    <symbol id="icon-instagram" viewBox="0 0 20 20">
        <g>
        <path d="M0,10c0-1.4,0-2.8,0-4.2c0-0.5,0.1-1.1,0.2-1.6c0.5-2,2.2-3.6,4.2-4.1C4.9,0.1,5.3,0,5.8,0c2.8,0,5.6,0,8.4,0
        c2.3,0,4.3,1.3,5.3,3.3c0.3,0.5,0.4,1.1,0.5,1.7c0,0.2,0,0.5,0,0.7c0,2.8,0,5.6,0,8.5c0,2.7-1.9,5.1-4.5,5.6
        C15.1,20,14.7,20,14.3,20c-0.5,0-0.9,0-1.4,0c-2.4,0-4.7,0-7.1,0c-0.8,0-1.5-0.1-2.2-0.4c-1.8-0.7-3.1-2.3-3.5-4.2
        C0,15,0,14.6,0,14.2C0,12.8,0,11.4,0,10z M1.8,9.9c0,0.9,0,1.8,0,2.7c0,0.6,0,1.2,0,1.7c0,0.3,0.1,0.7,0.2,1
        c0.4,1.4,1.7,2.6,3.4,2.6c0.6,0,1.3,0,1.9,0.1c0.7,0,1.4,0,2.1,0c0.7,0,1.3,0,2,0c0.5,0,0.9,0,1.4,0c0.6,0,1.1,0,1.7-0.1
        c0.5,0,1.1-0.1,1.5-0.4c1.3-0.6,2-1.7,2.1-3.1c0-0.5,0.1-1.1,0.1-1.6c0-0.6,0-1.2,0-1.8c0-1.1,0-2.2,0-3.3c0-0.3,0-0.6,0-0.9
        c0-0.5,0-1-0.1-1.5c0-0.3,0-0.5-0.1-0.7c-0.3-1.5-1.7-2.8-3.4-2.9c-0.4,0-0.7,0-1.1,0c-0.8,0-1.5-0.1-2.3-0.1c-1.1,0-2.1,0-3.2,0
        c-0.3,0-0.6,0-1,0c-0.5,0-1,0-1.5,0.1c-0.2,0-0.4,0-0.7,0.1c-1.3,0.3-2.2,1-2.7,2.2C2,4.6,1.9,5,1.9,5.5c0,0.4,0,0.7,0,1.1
        C1.8,7.7,1.8,8.8,1.8,9.9z"></path>
        <path d="M10,4.8c2.9,0,5.2,2.4,5.2,5.2c0,2.8-2.3,5.2-5.1,5.2c-2.8,0-5.2-2.2-5.2-5.2C4.8,7.1,7.1,4.8,10,4.8z M13.4,10
        c0-1.9-1.5-3.4-3.3-3.4c-1.8,0-3.3,1.5-3.3,3.3c0,1.8,1.5,3.3,3.3,3.4C11.8,13.3,13.3,11.9,13.4,10z"></path>
        <path d="M15.3,3.4c0.7,0,1.2,0.5,1.2,1.2c0,0.7-0.5,1.2-1.2,1.2c-0.7,0-1.2-0.5-1.2-1.2C14.1,4,14.7,3.4,15.3,3.4z"></path>
        </g>
    </symbol>
</svg>

